PathFileType   4   (X/Y/Z)																																																																																																																							
DataRate	CameraRate	NumFrames	NumMarkers	Units	OrigDataRate	OrigDataStartFrame	OrigNumFrames																																																																																																																
120	120	4	37	mm	120	63	125																																																																																																																
Frame#	Time	Sternum	R.Acromium	L.Acromium	Top.Head	R.ASIS	L.ASIS	V.Sacral	R.Thigh.Upper	R.Thigh.Front	R.Thigh.Rear	R.Knee.Lat	R.Knee.Med	R.Shank.Upper	R.Shank.Front	R.Shank.Rear	R.Ankle.Lat	R.Ankle.Med	R.Heel	R.Midfoot.Sup	R.Midfoot.Lat	R.Toe.Lat	R.Toe.Med	R.Toe.Tip	L.Thigh.Upper	L.Thigh.Front	L.Thigh.Rear	L.Knee.Lat	L.Knee.Med	L.Shank.Upper	L.Shank.Front	L.Shank.Rear	L.Ankle.Lat	L.Ankle.Med	L.Heel	L.Midfoot.Sup	L.Midfoot.Lat	L.Toe.Lat	L.Toe.Med	L.Toe.Tip																																																																															
 	 	X1	Y1	Z1	X2	Y2	Z2	X3	Y3	Z3	X4	Y4	Z4	X5	Y5	Z5	X6	Y6	Z6	X7	Y7	Z7	X8	Y8	Z8	X9	Y9	Z9	X10	Y10	Z10	X11	Y11	Z11	X12	Y12	Z12	X13	Y13	Z13	X14	Y14	Z14	X15	Y15	Z15	X16	Y16	Z16	X17	Y17	Z17	X18	Y18	Z18	X19	Y19	Z19	X20	Y20	Z20	X21	Y21	Z21	X22	Y22	Z22	X23	Y23	Z23	X24	Y24	Z24	X25	Y25	Z25	X26	Y26	Z26	X27	Y27	Z27	X28	Y28	Z28	X29	Y29	Z29	X30	Y30	Z30	X31	Y31	Z31	X32	Y32	Z32	X33	Y33	Z33	X34	Y34	Z34	X35	Y35	Z35	X36	Y36	Z36	X37	Y37	Z37							
																																																																																																																							
	63	0.64167	634.5184882	-0.001002095	1241.606229	548.6362375	-161.9453511	1293.228879	551.3777612	165.1979949	1293.44648	610.9349637	-10.08809499	1532.831405	711.8458903	-117.7896216	852.3756368	716.8776314	119.399185	844.5221097	536.1926207	-5.611229398	870.2222741	772.555315	-173.4115572	569.1284391	858.5392626	-67.95180237	533.4746753	817.0321934	-162.9734513	442.3986729	816.0529669	-142.5943975	338.0689735	821.8911988	-8.355853302	320.4417826	782.0968843	-154.6508593	297.262618	868.9211877	-93.81404015	265.2704743	807.8662273	-165.0122006	203.9106415	837.5079867	-136.9768135	-113.6312013	844.7919475	-37.22329306	-96.73189788	765.6795435	-79.10633289	-137.9689507	917.7879343	-41.71858376	-129.0990128	911.7796846	-155.3841374	-149.9035648	1006.088512	-165.0174344	-177.2848965	1008.847101	-50.15543807	-163.4917677	1073.390424	-83.79364801	-164.3407793	607.6416097	178.8034865	534.4256814	681.8131169	95.03600439	470.194798	570.1548935	161.7547942	419.5537788	509.4401806	144.5366564	285.905132	510.9378193	15.87918741	286.3696675	471.5103676	162.4477689	274.6821463	469.7585955	100.5194763	200.2044457	424.6119071	174.5177999	252.4286606	200.1889812	136.4325857	-17.66973235	221.2134372	34.31683281	-1.663568902	131.7088569	76.11439987	32.77103585	251.0210453	48.15109198	-105.4369629	238.5188643	152.6198727	-90.5045696	262.657615	163.716336	-157.6876652	274.2299954	55.50675189	-171.5429084	308.3590132	82.30973808	-210.9365659
	64	0.65	644.4589174	-0.001002095	1242.681157	558.5498064	-161.9453511	1294.259094	561.2912164	165.1979949	1294.478123	620.7238004	-10.08809499	1533.894017	722.2289258	-117.7896216	854.0130801	727.3025255	119.399185	846.1865295	546.4828758	-5.611229398	870.9216427	781.4106034	-173.4115572	568.7639154	867.0343779	-67.95180237	532.2536518	824.6202725	-162.9734513	441.5965027	822.5996947	-142.5943975	337.2817755	828.2616844	-8.355853302	319.5971865	787.771474	-154.6508593	296.9860353	873.9862844	-93.81404015	263.3859849	811.8016346	-165.0122006	203.171314	835.5374874	-136.9768135	-114.866522	843.1342253	-37.22329306	-98.10549234	763.4920197	-79.10633289	-138.566487	915.6781362	-41.71858376	-131.1486525	909.4716048	-155.3841374	-151.8949152	1003.514814	-165.0174344	-180.175069	1006.404916	-50.15543807	-166.408896	1070.937197	-83.79364801	-167.8738606	621.967891	178.8034865	535.4149126	697.093092	95.03600439	472.3021323	586.2058653	161.7547942	419.9944403	527.4996757	144.5366564	285.4514344	528.9901889	15.87918741	285.9383486	487.3978504	162.4477689	275.3506465	483.5575898	100.5194763	200.9513925	439.8936112	174.5177999	254.4214689	207.9824536	136.4325857	-9.275339137	229.447626	34.31683281	6.134767658	143.3624035	76.11439987	45.92873827	252.050313	48.15109198	-100.7811371	240.6949306	152.6198727	-84.95912118	259.7632337	163.716336	-153.753361	270.2716176	55.50675189	-168.431972	301.3720426	82.30973808	-210.2579648
	65	0.65833	654.351163	-0.001002095	1243.790493	568.429618	-161.9453511	1295.347714	571.1709751	165.1979949	1295.567404	630.545829	-10.08809499	1534.997621	732.4731174	-117.7896216	855.7109468	737.5895756	119.399185	847.9123468	556.6369548	-5.611229398	871.6551471	789.9035372	-173.4115572	568.303611	875.1169802	-67.95180237	530.8456446	831.6996929	-162.9734513	440.6646368	828.5219236	-142.5943975	336.3787469	833.9873638	-8.355853302	318.6324296	792.9027993	-154.6508593	296.6043146	878.5162159	-93.81404015	261.5001865	815.2870118	-165.0122006	202.3833107	833.4518425	-136.9768135	-116.0212979	841.3408251	-37.22329306	-99.39582065	761.2584018	-79.10633289	-139.2834867	913.4918843	-41.71858376	-132.9112709	907.1429827	-155.3841374	-153.6144083	1000.989702	-165.0174344	-182.5399254	1003.974303	-50.15543807	-168.7939308	1068.494997	-83.79364801	-170.7021658	636.5973754	178.8034865	536.496471	712.7722977	95.03600439	474.654737	602.7795153	161.7547942	420.4914701	546.341997	144.5366564	284.9811617	547.8241195	15.87918741	285.4930485	504.0390183	162.4477689	276.0049653	498.1454519	100.5194763	201.7401522	455.9748744	174.5177999	256.3957511	216.8693588	136.4325857	-0.795508394	238.751942	34.31683281	14.01589151	156.3227081	76.11439987	58.75060134	254.1151868	48.15109198	-95.43591017	243.9338699	152.6198727	-78.8340523	257.9766927	163.716336	-148.827243	267.3959261	55.50675189	-164.2274312	295.3898383	82.30973808	-208.1932246
	66	0.66667	664.1868814	-0.001002095	1244.917916	578.2668933	-161.9453511	1296.477732	581.0082571	165.1979949	1296.697339	640.3903413	-10.08809499	1536.125763	742.5639666	-117.7896216	857.433247	747.7228835	119.399185	849.6626689	566.6434575	-5.611229398	872.4181739	798.0027288	-173.4115572	567.7381327	882.7532591	-67.95180237	529.2442666	838.2399642	-162.9734513	439.5991798	833.7912709	-142.5943975	335.3597718	839.0399919	-8.355853302	317.5481536	797.471008	-154.6508593	296.1103593	882.5019861	-93.81404015	259.6180358	818.31938	-165.0122006	201.5376575	831.301694	-136.9768135	-117.1203337	839.4601118	-37.22329306	-100.6254024	759.0156513	-79.10633289	-140.1144488	911.2767814	-41.71858376	-134.4411248	904.8329093	-155.3841374	-155.1148996	998.5458578	-165.0174344	-184.4709133	1001.593528	-50.15543807	-170.7387643	1066.104783	-83.79364801	-172.9431601	651.4845982	178.8034865	537.6722033	728.794073	95.03600439	477.2547888	619.8254058	161.7547942	421.0595821	565.9124341	144.5366564	284.5252324	567.3848017	15.87918741	285.0645366	521.4037489	162.4477689	276.6544393	513.5158928	100.5194763	202.5748988	472.8298316	174.5177999	258.3443934	226.8967989	136.4325857	7.673822845	249.1696404	34.31683281	21.89161264	170.4726625	76.11439987	71.0454435	257.5047352	48.15109198	-89.46084154	248.4812192	152.6198727	-72.20230578	257.7102273	163.716336	-142.9912387	266.0555221	55.50675189	-158.9988559	290.9808849	82.30973808	-204.7741374
